<?xml version="1.0" encoding="UTF-8" standalone="no"?>
<!-- Created with Inkscape (http://www.inkscape.org/) -->

<svg
   width="16.0px"
   height="16.0px"
   viewBox="0 0 16.0 16.0"
   version="1.1"
   id="SVGRoot"
   sodipodi:docname="tray.svg"
   inkscape:version="1.1 (c68e22c387, 2021-05-23)"
   inkscape:export-filename="C:\Users\natha\Repositories\auto-sensitivity\AutoSensitivity\Resources\tray-64.png"
   inkscape:export-xdpi="384"
   inkscape:export-ydpi="384"
   xmlns:inkscape="http://www.inkscape.org/namespaces/inkscape"
   xmlns:sodipodi="http://sodipodi.sourceforge.net/DTD/sodipodi-0.dtd"
   xmlns="http://www.w3.org/2000/svg"
   xmlns:svg="http://www.w3.org/2000/svg">
  <sodipodi:namedview
     id="namedview14"
     pagecolor="#505050"
     bordercolor="#eeeeee"
     borderopacity="1"
     inkscape:pageshadow="0"
     inkscape:pageopacity="0"
     inkscape:pagecheckerboard="0"
     inkscape:document-units="px"
     showgrid="true"
     inkscape:zoom="46.295847"
     inkscape:cx="5.9400576"
     inkscape:cy="8.0892785"
     inkscape:window-width="1920"
     inkscape:window-height="1001"
     inkscape:window-x="-9"
     inkscape:window-y="-9"
     inkscape:window-maximized="1"
     inkscape:current-layer="layer1"
     showguides="false">
    <inkscape:grid
       type="xygrid"
       id="grid20" />
  </sodipodi:namedview>
  <defs
     id="defs9" />
  <g
     inkscape:label="Layer 1"
     inkscape:groupmode="layer"
     id="layer1">
    <path
       id="rect2319"
       style="fill:#ffffff;stroke:none;stroke-width:0.7;stroke-linecap:round;stroke-linejoin:round;stroke-miterlimit:4;stroke-dasharray:none;stroke-opacity:1;paint-order:normal"
       d="M 2 2 C 1.446 2 1 2.446 1 3 L 1 9.5 L 15 9.5 L 15 3 C 15 2.446 14.554 2 14 2 L 2 2 z M 4.5 3.5 A 0.5 0.5 0 0 1 5 4 C 5 4.333333 5.2200404 5.0594424 5.5546875 5.6171875 C 5.722011 5.89606 5.9156363 6.1405567 6.09375 6.2949219 C 6.2718637 6.4492871 6.4166667 6.5 6.5 6.5 C 6.5 6.5 6.6636079 6.4392321 6.8769531 6.1992188 C 7.0902984 5.9592054 7.3339846 5.597656 7.5839844 5.2226562 C 7.8339841 4.8476566 8.0902989 4.4592048 8.3769531 4.1367188 C 8.6636074 3.8142327 9.0000005 3.5 9.5 3.5 C 9.9166662 3.5 10.271864 3.6992875 10.5625 3.9511719 C 10.853136 4.2030563 11.097009 4.5210607 11.304688 4.8671875 C 11.720038 5.5594412 12 6.333334 12 7 A 0.5 0.5 0 0 1 11.5 7.5 A 0.5 0.5 0 0 1 11 7 C 11 6.666667 10.779961 5.9405576 10.445312 5.3828125 C 10.277989 5.10394 10.084364 4.8594433 9.90625 4.7050781 C 9.7281363 4.550713 9.583333 4.5 9.5 4.5 C 9.5 4.5 9.3363921 4.5607679 9.1230469 4.8007812 C 8.9097016 5.0407946 8.6660154 5.4023441 8.4160156 5.7773438 C 8.1660159 6.1523434 7.9097011 6.5407952 7.6230469 6.8632812 C 7.3363926 7.1857673 6.9999995 7.5 6.5 7.5 C 6.0833338 7.5 5.7281358 7.3007125 5.4375 7.0488281 C 5.1468642 6.7969437 4.9029886 6.4789393 4.6953125 6.1328125 C 4.2799603 5.4405588 4 4.666666 4 4 A 0.5 0.5 0 0 1 4.5 3.5 z M 1 10.5 L 1 13 C 1 13.554 1.446 14 2 14 L 7.5 14 L 7.5 10.5 L 1 10.5 z M 8.5 10.5 L 8.5 14 L 14 14 C 14.554 14 15 13.554 15 13 L 15 10.5 L 8.5 10.5 z " />
  </g>
  <g
     inkscape:groupmode="layer"
     id="layer2"
     inkscape:label="Mask"
     style="mix-blend-mode:normal" />
</svg>
